<svg xmlns="http://www.w3.org/2000/svg" viewBox="28 26 348 172">
  <path fill="#ff8303" d="M160.06,115.76l-2.02-.53c-1.17-.37-1.95-1.44-1.95-2.66v-16.9h-11.52v-52.6h58.06v34.58h-5.29v-29.29h-47.49v42.03h11.52v14.28l8.72-12.46h27.34v-3.51h5.29v8.8h-29.87l-12.79,18.27Z"/>
  <path fill="#231f20" d="M227.73,102.35c-.78,0-1.53-.36-2.02-1.01l-12.65-16.86h-31.21v-32.51h3.53v28.99h29.45l11.91,15.89v-17.1h8.49v-42.58h-49.86v2.92h-3.53v-6.44h56.91v49.63h-8.49v16.56c0,1.09-.7,2.06-1.73,2.4-.26.09-.54.13-.8.13Z"/>
  <circle fill="#ff8303" cx="162.75" cy="69.31" r="2.8"/>
  <circle fill="#ff8303" cx="172.61" cy="69.31" r="2.8"/>
  <circle fill="#231f20" cx="212.42" cy="58.31" r="2.8"/>
  <circle fill="#231f20" cx="222.28" cy="58.31" r="2.8"/>
  <path fill="#231f20" d="M66.22,156.91h-33.27v-44.39h10.75v35.37h22.52v9.02Z"/>
  <path fill="#231f20" d="M69.5,115.89c0-3.33,2.29-5.65,5.62-5.65s5.69,2.29,5.69,5.65-2.35,5.62-5.69,5.62-5.62-2.29-5.62-5.62ZM80.32,156.91h-10.3v-31.38h10.3v31.38Z"/>
  <path fill="#231f20" d="M107.32,156.91v-17.45c0-3.5-2.78-5.17-5.26-5.17s-5.23,1.67-5.23,5.17v17.45h-10.3v-31.38h9.45l.33,3.3c2.22-2.81,6.01-3.96,9.71-3.96,5.92,0,11.6,4.15,11.6,11.64v20.4h-10.3Z"/>
  <path fill="#231f20" d="M136.88,157.56c-8.86,0-14.64-6.93-14.64-16.28s5.79-16.41,14.64-16.41c4.74,0,7.68,1.67,9.51,3.96l.33-3.3h9.64v30.92c0,10.36-10.13,14.19-18.93,14.19-5.59,0-9.81-1.41-12.36-2.58l.98-8.53c1.44.91,6.24,2.09,10.46,2.09,3.59,0,9.58-1.05,9.58-5.72v-1.8c-1.63,2.19-5.33,3.46-9.22,3.46ZM132.6,141.22c0,4.18,3.01,7.13,6.93,7.13s6.7-2.94,6.7-7.13-2.84-7.13-6.7-7.13-6.93,2.78-6.93,7.13Z"/>
  <path fill="#231f20" d="M192.76,125.53v18.27c0,7.97-6.11,13.76-15.4,13.76s-15.07-5.79-15.07-13.57v-18.47h10.3v17.49c0,3.1,2.06,5.16,4.77,5.16,3.07,0,5.1-2.03,5.1-5.16v-17.49h10.3Z"/>
  <path fill="#231f20" d="M221.41,156.91l-.33-3.3c-1.8,2.22-4.84,3.96-9.25,3.96-8.37,0-14.51-6.93-14.51-16.31s6.14-16.38,14.51-16.38c4.41,0,7.45,1.77,9.25,3.96l.33-3.3h9.97v31.38h-9.97ZM207.52,141.25c0,4.25,2.78,7.22,6.77,7.22s6.77-2.97,6.77-7.22-2.78-7.19-6.77-7.22c-3.99,0-6.77,2.97-6.77,7.22Z"/>
  <path fill="#ff8303" d="M272.39,156.91h-32.16v-44.39h6.9v38.14h25.27v6.24Z"/>
  <path fill="#ff8303" d="M277.51,115.01c0-2.35,1.64-3.99,3.99-3.99s4.02,1.63,4.02,3.99-1.67,3.99-4.02,3.99-3.99-1.63-3.99-3.99ZM278.26,156.91v-31.38h6.47v31.38h-6.47Z"/>
  <path fill="#ff8303" d="M323.65,137.85v19.06h-6.47v-17.68c0-5.2-2.84-8.2-7.72-8.2s-8.66,3.01-8.66,8.2v17.68h-6.47v-31.38h6.5v3.95c1.05-1.6,4.02-4.61,9.64-4.61,8.63,0,13.17,5.36,13.17,12.98Z"/>
  <path fill="#ff8303" d="M339.36,137.89h5.79l7.98-12.36h7.12l-10,15.2,11.7,16.18h-7.39l-9.61-13.53h-5.59v13.53h-6.47v-46.02h6.47v27Z"/>
  <path fill="#231f20" d="M251.2,165.53c8.17,0,14.23,5.86,14.23,13.97s-6.06,13.71-14.23,13.71-14.09-5.66-14.09-13.71,6.05-13.97,14.09-13.97ZM251.2,190.15c6.35,0,10.86-4.35,10.86-10.67s-4.49-10.88-10.86-10.88-10.7,4.55-10.7,10.88,4.47,10.67,10.7,10.67Z"/>
  <path fill="#231f20" d="M286.85,181.24v11.56h-3.13v-10.78c0-3.7-1.94-5.64-5.38-5.64-3.24,0-5.88,2.24-5.88,5.7v10.72h-3.15v-19h3.17v2.85c1.07-1.76,3.32-3.25,6.35-3.25,5.01,0,8.01,2.95,8.01,7.84Z"/>
  <path fill="#231f20" d="M291.75,164.94h3.15v27.86h-3.15v-27.86Z"/>
  <path fill="#231f20" d="M299.68,167.43c0-1.15.79-1.94,1.94-1.94s1.98.79,1.98,1.94-.83,1.96-1.98,1.96-1.94-.81-1.94-1.96ZM300.05,173.8h3.15v19h-3.15v-19Z"/>
  <path fill="#231f20" d="M325.88,181.24v11.56h-3.13v-10.78c0-3.7-1.94-5.64-5.38-5.64-3.24,0-5.88,2.24-5.88,5.7v10.72h-3.15v-19h3.17v2.85c1.07-1.76,3.32-3.25,6.35-3.25,5.01,0,8.01,2.95,8.01,7.84Z"/>
  <path fill="#231f20" d="M347.28,191.33c-2.21,1.29-4.61,1.86-7.16,1.86-6.39,0-10.8-4.04-10.8-9.89s4.08-9.89,9.77-9.89c6.43,0,10.07,5.2,9.04,11.04h-15.53c.53,3.74,3.7,5.8,7.38,5.8,2.22,0,4.19-.38,6.75-1.76l.55,2.85ZM345.27,181.87c-.22-3.24-2.45-5.54-6.07-5.54s-6.21,2.3-6.51,5.54h12.58Z"/>
</svg>