<?xml version="1.0" encoding="UTF-8"?>
<svg id="Layer_2" xmlns="http://www.w3.org/2000/svg" viewBox="0 0 115.88 115.88">
  <g id="Layer_1-2">
    <path fill="#ffffff" d="M31.95,94.65l-1.66-.44c-.96-.3-1.61-1.19-1.61-2.2v-13.95h-9.51v-43.43h47.93v28.55h-4.36v-24.18H23.52v34.7h9.51v11.79l7.2-10.28h22.57v-2.9h4.36v7.27h-24.66l-10.56,15.08Z"/>
    <path fill="#ffffff" d="M87.81,83.58c-.64,0-1.27-.3-1.67-.83l-10.44-13.92h-25.77v-26.84h2.91v23.93h24.31l9.84,13.12v-14.12h7.01V29.76h-41.16v2.41h-2.91v-5.32h46.98v40.97h-7.01v13.67c0,.9-.57,1.7-1.43,1.98-.22.07-.44.11-.66.11Z"/>
    <circle fill="#ffffff" cx="34.17" cy="56.29" r="2.31"/>
    <circle fill="#ffffff" cx="42.31" cy="56.29" r="2.31"/>
    <circle fill="#ffffff" cx="75.18" cy="47.22" r="2.31"/>
    <circle fill="#ffffff" cx="83.32" cy="47.22" r="2.31"/>
  </g>
</svg>
